<svg width="41" height="41" viewBox="0 0 41 41" fill="none" xmlns="http://www.w3.org/2000/svg">
<g clip-path="url(#clip0_10_7264)">
<path d="M39.1056 34.5354C39.9686 34.5354 40.6681 33.8359 40.6681 32.9732C40.6681 32.1102 39.9686 31.4107 39.1056 31.4107H34.8093V27.1144C34.8093 26.2517 34.1099 25.5522 33.2471 25.5522C32.3841 25.5522 31.6846 26.2517 31.6846 27.1144V31.4107H27.3884C26.5256 31.4107 25.8262 32.1102 25.8262 32.9732C25.8262 33.8359 26.5256 34.5354 27.3884 34.5354H31.6846V38.8317C31.6846 39.6947 32.3841 40.3942 33.2471 40.3942C34.1099 40.3942 34.8093 39.6947 34.8093 38.8317V34.5354H39.1056Z" fill="#009C37"/>
<path d="M23.8292 26.6175C22.8511 25.9351 21.8059 25.3791 20.7127 24.9543C22.1669 23.6326 23.1316 21.7811 23.2994 19.7083C25.5046 17.5596 28.3952 16.3816 31.494 16.3816C33.9131 16.3816 36.2358 17.1101 38.2115 18.4879C38.9195 18.9817 39.893 18.8084 40.3868 18.1003C40.8803 17.3926 40.7069 16.4188 39.9992 15.9254C39.0212 15.243 37.9756 14.6873 36.8825 14.2621C38.4871 12.8037 39.496 10.7007 39.496 8.36676C39.496 3.97315 35.9218 0.398926 31.5282 0.398926C27.1349 0.398926 23.5606 3.97315 23.5606 8.36676C23.5606 10.6913 24.5613 12.7866 26.1549 14.2444C25.9367 14.3284 25.7198 14.4172 25.5049 14.5118C24.5271 14.9421 23.6079 15.4713 22.7531 16.0926C21.5742 13.1638 18.7041 11.0911 15.3584 11.0911C10.9651 11.0911 7.39058 14.6653 7.39058 19.0586C7.39058 21.3767 8.38576 23.4663 9.97084 24.9235C5.73287 26.5113 2.29658 29.9216 0.897658 34.271C0.433791 35.7133 0.679458 37.2428 1.57179 38.4675C2.46413 39.6918 3.84474 40.3941 5.35964 40.3941H18.9519C19.8146 40.3941 20.5141 39.6946 20.5141 38.8316C20.5141 37.9688 19.8146 37.2694 18.9519 37.2694H5.35964C4.85457 37.2694 4.39436 37.0353 4.09682 36.627C3.79927 36.2186 3.71748 35.7087 3.8719 35.2277C5.41609 30.4267 10.1256 27.0737 15.3242 27.0737C17.7431 27.0737 20.0661 27.8022 22.0418 29.1801C22.7495 29.6738 23.7233 29.5002 24.2171 28.7925C24.7105 28.0848 24.5372 27.111 23.8292 26.6175ZM31.5282 3.52362C34.1988 3.52362 36.3713 5.69617 36.3713 8.36676C36.3713 11.0371 34.1988 13.2099 31.5282 13.2099C28.8579 13.2099 26.685 11.0371 26.685 8.36676C26.685 5.69617 28.8579 3.52362 31.5282 3.52362ZM15.3584 14.2155C18.029 14.2155 20.2016 16.3883 20.2016 19.0586C20.2016 21.7292 18.029 23.9017 15.3584 23.9017C12.6878 23.9017 10.5153 21.7292 10.5153 19.0586C10.5153 16.3883 12.6878 14.2155 15.3584 14.2155Z" fill="#009C37"/>
</g>
<defs>
<clipPath id="clip0_10_7264">
<rect width="40" height="40" fill="white" transform="translate(0.667969 0.398926)"/>
</clipPath>
</defs>
</svg>
