<svg width="41" height="40" viewBox="0 0 41 40" fill="none" xmlns="http://www.w3.org/2000/svg">
<g clip-path="url(#clip0_10_7250)">
<path d="M28.8545 9.60938C28.8527 9.60938 28.8508 9.60938 28.849 9.60938C28.4326 9.60938 28.0333 9.77562 27.7399 10.0713L18.7753 19.1058L15.42 15.7002C15.1288 15.4047 14.732 15.2371 14.3171 15.2344C14.3137 15.2344 14.3104 15.2344 14.307 15.2344C13.8957 15.2344 13.501 15.3966 13.2083 15.6859L7.20408 21.6234C6.59048 22.2302 6.58494 23.2195 7.19173 23.833C7.49736 24.1421 7.89986 24.297 8.30283 24.2969C8.6997 24.2969 9.09689 24.1465 9.40142 23.8454L14.2926 19.0085L17.6585 22.4247C17.9515 22.7221 18.3513 22.8898 18.7688 22.8905C18.7697 22.8905 18.7706 22.8905 18.7715 22.8905C19.188 22.8905 19.5872 22.7243 19.8806 22.4286L28.8412 13.398L31.2484 15.8584C31.8521 16.4752 32.8413 16.4859 33.458 15.8824C34.0748 15.2789 34.0856 14.2897 33.4821 13.6728L29.9659 10.0791C29.6731 9.78008 29.2728 9.61086 28.8545 9.60938Z" fill="#009C37"/>
<path d="M38.7715 18.9062C39.6345 18.9062 40.334 18.2067 40.334 17.3438V4.76562C40.334 3.90266 39.6345 3.20312 38.7715 3.20312H21.8965V1.5625C21.8965 0.699531 21.197 0 20.334 0C19.471 0 18.7715 0.699531 18.7715 1.5625V3.20312H1.89648C1.03352 3.20312 0.333984 3.90266 0.333984 4.76562V25.2344C0.333984 28.6806 3.13773 31.4844 6.58398 31.4844H18.7715V36.875H14.084C13.221 36.875 12.5215 37.5745 12.5215 38.4375C12.5215 39.3005 13.221 40 14.084 40H26.5059C27.3688 40 28.0684 39.3005 28.0684 38.4375C28.0684 37.5745 27.3688 36.875 26.5059 36.875H21.8965V31.4844H34.084C37.5302 31.4844 40.334 28.6806 40.334 25.2344C40.334 24.3714 39.6345 23.6719 38.7715 23.6719C37.9085 23.6719 37.209 24.3714 37.209 25.2344C37.209 26.9575 35.8071 28.3594 34.084 28.3594H6.58398C4.86086 28.3594 3.45898 26.9575 3.45898 25.2344V6.32812H37.209V17.3438C37.209 18.2067 37.9085 18.9062 38.7715 18.9062Z" fill="#009C37"/>
</g>
<defs>
<clipPath id="clip0_10_7250">
<rect width="40" height="40" fill="white" transform="translate(0.333984)"/>
</clipPath>
</defs>
</svg>
