<svg width="41" height="41" viewBox="0 0 41 41" fill="none" xmlns="http://www.w3.org/2000/svg">
<g clip-path="url(#clip0_10_7242)">
<path d="M20.5911 40.1995C20.3516 40.1995 20.1123 40.1445 19.8923 40.0347C19.7095 39.9431 15.3644 37.7401 10.8182 32.7983C8.15339 29.9022 5.96467 26.6545 4.31245 23.1459C2.24885 18.7636 1.02418 13.9656 0.6717 8.88538C0.643013 8.47095 0.780647 8.06232 1.05378 7.74951C1.32722 7.43671 1.71357 7.24536 2.1283 7.2182C4.98994 7.03021 7.23176 4.63367 7.23176 1.76196C7.23176 0.898926 7.93122 0.199463 8.79426 0.199463H32.5443C33.407 0.199463 34.1068 0.898926 34.1068 1.76196C34.1068 4.63184 36.347 7.02838 39.2072 7.2182C39.6283 7.24597 40.0201 7.44312 40.2936 7.76447C40.5673 8.08582 40.6992 8.50421 40.6595 8.92444C40.1251 14.5653 38.5675 19.8412 36.0297 24.6059C35.6238 25.3676 34.6774 25.656 33.916 25.2504C33.1543 24.8448 32.8659 23.8985 33.2715 23.1368C35.3973 19.1457 36.7789 14.7573 37.3865 10.0731C34.187 9.22961 31.7291 6.58374 31.1249 3.32446H10.2136C9.60694 6.59778 7.13105 9.25189 3.91175 10.0835C4.73298 17.9662 7.79694 24.8583 13.0307 30.5876C16.1636 34.0169 19.2352 36.0402 20.5823 36.841C22.0563 35.9444 25.621 33.535 29.0915 29.3575C29.6429 28.6934 30.6277 28.6025 31.2918 29.1539C31.9556 29.7054 32.0468 30.6905 31.4954 31.3542C26.5564 37.2997 21.5152 39.9193 21.3028 40.028C21.0794 40.1424 20.8353 40.1995 20.5911 40.1995Z" fill="#009C37"/>
<path d="M21.7981 31.7436C22.3184 31.0548 22.182 30.0752 21.4939 29.5549C20.1428 28.5341 18.8645 27.3766 17.6938 26.115C14.2902 22.4455 11.9809 18.1343 10.8209 13.2875C11.4459 12.8047 12.034 12.2713 12.5769 11.6939C13.4772 10.7359 14.2459 9.66629 14.8618 8.51395C15.2683 7.75284 14.9808 6.80618 14.2197 6.39938C13.4586 5.99289 12.5119 6.28037 12.1054 7.04147C11.6193 7.9509 11.012 8.79593 10.3003 9.55338C9.67288 10.2208 8.96975 10.8131 8.21108 11.3145C7.67886 11.6661 7.41366 12.3061 7.54153 12.9314C8.7311 18.7483 11.3758 23.8991 15.4029 28.2402C16.6974 29.6358 18.1128 30.9172 19.6097 32.0482C19.8917 32.2612 20.2225 32.364 20.5506 32.364C21.0236 32.364 21.4911 32.1501 21.7981 31.7436Z" fill="#009C37"/>
</g>
<defs>
<clipPath id="clip0_10_7242">
<rect width="40" height="40" fill="white" transform="translate(0.667969 0.199463)"/>
</clipPath>
</defs>
</svg>
